# xmcd
#
# Track frame offsets: 
#        150
#        36408
#        66848
#        71472
#        90552
#        122317
#        145057
#        163957
#        194125
#        213123
#        222489
#
# Disc length: 3463 seconds
#
# Revision: 0
# Processed by: cddbd v1.5.2PL0 Copyright (c) Steve Scherf et al.
# Submitted via: ExactAudioCopy v0.95a4
#
DISCID=a80d850b
DTITLE=Watain - Sworn To The Dark
DYEAR=2007
DGENRE=Black Metal
TTITLE0=Legions Of The Black Light
TTITLE1=Satan's Hunger
TTITLE2=Withershins
TTITLE3=Storm Of The Antichrist
TTITLE4=The Light That Burns The Sun
TTITLE5=Sworn To The Dark
TTITLE6=Underneath The Cenotaph
TTITLE7=The Serpent's Chalice
TTITLE8=Darkness And Death
TTITLE9=Dead But Dreaming
TTITLE10=Stellarvore
EXTD=
EXTT0=
EXTT1=
EXTT2=
EXTT3=
EXTT4=
EXTT5=
EXTT6=
EXTT7=
EXTT8=
EXTT9=
EXTT10=
PLAYORDER=
